<?xml version="1.0" standalone="no"?><svg data-noselect="" 
  viewBox="175.058050186685 134.67279288704 358 268.69279502818995" 
  width="358" 
  height="268.69279502818995" 
  ref="svg_canvas" 
  preserveAspectRatio="none" 
  version="1.1" xmlns="http://www.w3.org/2000/svg" 
  style="background: #ffffff;">
    <defs></defs>
    <g id="shape_VJqoqBeuAX" class=""  ref="shape_VJqoqBeuAX" key="shape_VJqoqBeuAX" transform="translate(274.11610037337,214.67279288704) rotate(0,44.606606393348,54.346397514097) scale(1,1)" style="cursor:move;display:inline;opacity:1;" filter="">
            <g style="display:inline"><rect fill="rgba(0,0,0,0)" width="109.21321278669545" height="128.69279502819407" x="-10" y="-10"></rect><svg version="1.1" id="图层_1" xmlns="http://www.w3.org/2000/svg" xmlns:xlink="http://www.w3.org/1999/xlink" x="0px" y="0px" viewBox="0 0 163.5 199.2" style="enable-background:new 0 0 163.5 199.2;" xml:space="preserve" width="89.21321278669545" height="108.69279502819407" class="style-removed" preserveAspectRatio="none" data-parent="shape_VJqoqBeuAX">

<g>
	<path d="M68.8,23.3c40.1-2.1,78.3,20.8,94.7,58.5c-0.7-4.4-1.8-8.8-3.2-13.2C146.5,25,105.1-2.2,61.5,0.1L68.8,23.3z" fill="#6DBE45" stroke-width="0"></path>
	<path d="M30.2,67.8C60.6,41.6,104.8,36.3,140.9,56c-3.3-3-6.8-5.9-10.6-8.5c-37.6-26-87-22.1-120.1,6.4L30.2,67.8z" fill="#54C9EA" stroke-width="0"></path>
	<path d="M23.4,141.6c-1-40.1,23-77.7,61.2-93c-4.4,0.6-8.9,1.6-13.3,2.8C27.3,64-1.1,104.6,0,148.3L23.4,141.6z" fill="#6DBE45" stroke-width="0"></path>
	<path d="M64.8,180.9c-22.8-33-23.4-77.6,0.1-111.3c-3.4,2.9-6.6,6.2-9.6,9.6c-29.9,34.6-31.3,84.1-6.4,120.1
		L64.8,180.9z" fill="#54C9EA" stroke-width="0"></path>
</g>
</svg></g>
        </g><g id="shape_sfuTaI1nwZ" class="brand_name"  ref="shape_sfuTaI1nwZ" key="shape_sfuTaI1nwZ" transform="translate(252.55,77.94259335480999) rotate(0,187.77513984933,210.35000000000002) scale(1,1)" style="cursor:move;display:inline;opacity:1;" filter="">
            <g style="display:inline"><svg xmlns="http://www.w3.org/2000/svg" version="1.1" xmlns:xlink="http://www.w3.org/1999/xlink" width="356.8" height="420.70000000000005" viewBox="0 0 356.8 420.70000000000005" preserveAspectRatio="none" data-parent="shape_sfuTaI1nwZ"><rect fill="rgba(0,0,0,0)" width="123" height="70" x="58.45" y="175.35000000000002"></rect><g data-width="122.5112" transform="translate(58.45, 0)"><path d="M3.97 0L3.97-38.99L20.52-38.99Q26.71-38.99 30.10-37.76L30.10-37.76Q36.36-35.48 38.46-29.40L38.46-29.40Q40.04-24.72 40.04-19.41L40.04-19.41Q40.04-14.14 38.52-9.47L38.52-9.47Q37.00-4.68 33.49-2.40L33.49-2.40Q31.27-0.99 28.61-0.50Q25.95 0 20.52 0L20.52 0L3.97 0ZM20.52-32.03L12.27-32.03L12.27-6.96L20.52-6.96Q25.95-6.96 28.06-9.35L28.06-9.35Q29.34-10.87 30.13-13.62Q30.92-16.37 30.92-19.46L30.92-19.46Q30.92-22.91 29.98-25.78Q29.05-28.64 27.53-30.04L27.53-30.04Q25.31-32.03 20.52-32.03L20.52-32.03Z" transform="translate(0 230.35000000000002) " fill="rgb(56, 56, 56)" stroke="rgb(56, 56, 56)" stroke-width="0.097" data-glyph-w="41.8502" data-glyph-h="58.45" data-glyph-ascender="50.20855" data-glyph-descender="-8.24145"></path><path d="M23.38 0L3.80 0L3.80-6.96L21.63-6.96Q25.89-6.96 27.30-7.77L27.30-7.77Q29.34-9.00 29.34-11.46L29.34-11.46Q29.34-14.32 26.95-15.61L26.95-15.61Q25.60-16.37 22.62-16.37L22.62-16.37L15.37-16.37Q8.77-16.37 5.85-18.76L5.85-18.76Q4.03-20.28 3.01-22.56Q1.99-24.84 1.99-27.47L1.99-27.47Q1.99-31.56 4.38-34.95L4.38-34.95Q6.72-38.23 11.87-38.81L11.87-38.81Q13.62-38.99 17.07-38.99L17.07-38.99L36.41-38.99L36.41-32.03L18.94-32.03Q15.02-31.97 13.74-31.68L13.74-31.68Q11.11-31.04 11.11-27.71L11.11-27.71Q11.11-24.90 13.33-23.96L13.33-23.96Q14.79-23.26 18.24-23.26L18.24-23.26L24.49-23.26Q29.28-23.26 31.62-22.44L31.62-22.44Q35.77-21.04 37.35-17.54L37.35-17.54Q38.58-14.73 38.58-11.51L38.58-11.51Q38.58-7.95 36.94-5.14L36.94-5.14Q34.66-1.17 30.10-0.35L30.10-0.35Q27.88 0 23.38 0L23.38 0Z" transform="translate(41.8502 230.35000000000002) " fill="rgb(56, 56, 56)" stroke="rgb(56, 56, 56)" stroke-width="0.097" data-glyph-w="40.62275" data-glyph-h="58.45" data-glyph-ascender="50.20855" data-glyph-descender="-8.24145"></path><path d="M25.60-13.62L12.27-13.62L12.27 0L3.97 0L3.97-38.99L23.44-38.99Q28.76-38.99 31.04-38.23L31.04-38.23Q34.89-36.94 37.12-32.91L37.12-32.91Q38.75-29.87 38.75-26.30L38.75-26.30Q38.75-23.32 37.67-20.66Q36.59-18.00 34.66-16.31L34.66-16.31Q32.91-14.79 30.95-14.20Q28.99-13.62 25.60-13.62L25.60-13.62ZM12.27-32.03L12.27-20.57L23.56-20.57Q26.59-20.57 27.82-21.51L27.82-21.51Q29.63-22.97 29.63-26.59L29.63-26.59Q29.63-30.51 26.89-31.62L26.89-31.62Q25.89-32.03 23.73-32.03L23.73-32.03L12.27-32.03Z" transform="translate(82.47295 230.35000000000002) " fill="rgb(56, 56, 56)" stroke="rgb(56, 56, 56)" stroke-width="0.097" data-glyph-w="40.03825" data-glyph-h="58.45" data-glyph-ascender="50.20855" data-glyph-descender="-8.24145"></path></g></svg></g>
        </g>
  </svg>